<svg width="204" height="33" viewBox="0 0 204 33" fill="none" xmlns="http://www.w3.org/2000/svg">
<path d="M170.721 0.126953H165.115V11.1929C164.484 10.6337 163.957 10.1666 163.332 9.8245C158.76 7.31787 152.602 9.56791 150.576 14.6075C149.043 18.4233 149.043 22.3379 150.457 26.1866C151.51 29.0485 153.576 30.9236 156.569 31.7591C157.727 32.0815 158.898 31.9367 160.063 31.9959C161.872 32.0881 163.299 31.292 164.55 30.0946C164.707 29.9433 164.852 29.7722 165.102 29.5091C165.102 30.0814 165.155 30.5091 165.089 30.917C164.984 31.6209 165.286 31.7394 165.925 31.713C167.227 31.6604 168.543 31.6538 169.846 31.713C170.53 31.7459 170.727 31.5815 170.721 30.8643C170.694 20.6207 170.708 10.3771 170.714 0.133532L170.721 0.126953ZM164.661 24.7656C163.74 26.3577 162.392 27.259 160.51 27.2656C158.661 27.2656 157.247 26.4169 156.418 24.8248C154.918 21.93 154.924 18.9562 156.398 16.0549C157.234 14.4167 158.694 13.5548 160.556 13.5746C162.418 13.5943 163.78 14.5154 164.688 16.1207C165.438 17.4562 165.648 18.9102 165.675 20.476C165.648 21.93 165.451 23.4168 164.661 24.7656Z" fill="white"/>
<path d="M202.899 27.3049C202.353 25.0878 200.215 23.9101 198.03 24.6141C196.307 25.1667 195.353 26.7259 195.55 28.6536C195.721 30.305 197.057 31.6339 198.734 31.8247C200.636 32.0352 202.221 31.055 202.794 29.3444C202.873 29.1141 202.787 28.7983 203.07 28.6536V27.6996C202.846 27.647 202.932 27.4496 202.899 27.3115" fill="white"/>
<path d="M53.0805 9.15317C51.8304 9.22554 50.5738 9.2387 49.3172 9.22554C48.7975 9.22554 48.6001 9.39002 48.4685 9.90977C47.6067 13.3506 46.6922 16.7783 45.7974 20.2126C45.429 21.6271 45.0474 23.0416 44.6198 24.6666C44.4882 24.1534 44.4224 23.8705 44.35 23.5876C43.2184 19.0678 42.0737 14.548 40.9618 10.0216C40.8171 9.43607 40.5934 9.18607 39.9552 9.24528C39.2118 9.31107 38.4618 9.25186 37.7118 9.26502C37.021 9.2716 36.1131 9.03475 35.6986 9.38344C35.2446 9.75845 35.2446 10.6795 35.067 11.3703C33.9749 15.6993 32.8893 20.0284 31.8038 24.364C31.7511 24.364 31.7051 24.3574 31.6524 24.3508C31.6195 24.2587 31.5801 24.1666 31.5538 24.0679C30.3235 19.3507 29.0866 14.6401 27.8826 9.91634C27.7576 9.41634 27.5734 9.23212 27.0405 9.24528C25.5997 9.28475 24.1589 9.27817 22.7181 9.24528C22.2444 9.2387 22.1194 9.33739 22.2707 9.81108C24.5668 16.9428 26.8497 24.0745 29.1195 31.2128C29.2445 31.6009 29.4221 31.6996 29.7971 31.6931C31.0209 31.6733 32.2511 31.6667 33.4814 31.6931C33.988 31.7062 34.2117 31.5878 34.3433 31.0549C35.0341 28.3048 35.7907 25.5745 36.521 22.8376C37.0078 21.0152 37.4947 19.1862 38.0276 17.1928C38.146 17.581 38.2184 17.7783 38.271 17.9823C39.4092 22.2258 40.5605 26.4693 41.6592 30.7259C41.8368 31.4036 42.1197 31.5944 42.7908 31.5615C43.9356 31.5088 45.0869 31.5286 46.2317 31.5549C46.6396 31.5615 46.8501 31.4628 46.9619 31.0351C47.2119 30.1141 47.5409 29.2193 47.8304 28.3114C49.7843 22.1863 51.7252 16.048 53.712 9.9295C53.9555 9.17949 53.7778 9.10054 53.0936 9.14001" fill="white"/>
<path d="M76.1402 9.12052C75.3968 9.08762 75.1073 9.29157 74.9231 10.0416C73.7257 14.8443 72.4691 19.6339 71.1796 24.6208C71.0678 24.2392 70.9954 24.0418 70.9427 23.8445C69.7783 19.1667 68.6006 14.4956 67.4624 9.81132C67.3374 9.29815 67.1598 9.11394 66.6269 9.13367C65.344 9.17315 64.0676 9.17315 62.7847 9.13367C62.2518 9.12052 62.0676 9.30473 61.9492 9.8179C61.1136 13.4298 60.2452 17.0351 59.3768 20.6405C59.0675 21.9168 58.7452 23.1931 58.3833 24.6734C57.2978 21.5944 56.2978 18.7391 55.2912 15.8838C54.3503 18.0286 53.7845 20.226 53.1595 22.4037C53.1069 22.5879 53.1661 22.8247 53.2253 23.0221C54.074 25.7524 54.9425 28.4761 55.778 31.2064C55.903 31.6078 56.1004 31.7196 56.5083 31.713C57.7386 31.6867 58.9623 31.6736 60.1926 31.713C60.7386 31.7328 60.8965 31.5157 61.0215 31.0354C62.1334 26.759 63.2716 22.4826 64.4163 18.2128C64.4821 17.9628 64.4229 17.6207 64.7584 17.4562C64.7913 17.5417 64.8242 17.6141 64.844 17.6799C66.0282 22.1339 67.2124 26.5814 68.3769 31.042C68.5019 31.5222 68.6664 31.7393 69.2125 31.713C70.4362 31.6604 71.6665 31.6604 72.8902 31.713C73.4494 31.7328 73.6599 31.5486 73.8178 31.0288C75.2323 26.509 76.6797 21.9957 78.1073 17.4825C78.9758 14.739 79.8442 11.989 80.7456 9.14025C79.1534 9.14025 77.6337 9.18631 76.1271 9.12052" fill="white"/>
<path d="M106.726 9.12704C105.391 9.16651 104.055 9.16651 102.726 9.12704C102.173 9.1073 101.956 9.2652 101.818 9.82442C100.634 14.5219 99.4037 19.2127 98.1931 23.9036C98.1471 24.0878 98.1866 24.3247 97.9102 24.397C96.7063 19.5285 95.4957 14.6666 94.3115 9.80468C94.1799 9.25862 93.9431 9.10072 93.3904 9.12046C92.1667 9.16651 90.9364 9.17309 89.7061 9.12046C89.1074 9.09414 88.8838 9.29151 88.7588 9.86389C87.9693 13.2982 87.1403 16.7193 86.3245 20.147C85.9824 21.568 85.6337 22.9891 85.2916 24.4036C85.239 24.4036 85.1863 24.4036 85.1337 24.4036C84.1337 21.5483 83.1271 18.6996 82.1073 15.7916C82.0086 15.9364 81.9297 16.0153 81.8968 16.1074C81.206 18.193 80.5283 20.2851 79.831 22.3707C79.752 22.6075 79.8639 22.7852 79.9231 22.9825C80.8244 25.726 81.7389 28.4629 82.6205 31.2064C82.7389 31.5814 82.9034 31.7064 83.285 31.6998C84.5679 31.6801 85.8508 31.6735 87.1271 31.6998C87.5548 31.7064 87.7061 31.5682 87.818 31.1537C88.4166 28.7919 89.0614 26.4431 89.693 24.0878C90.2917 21.8509 90.8838 19.6075 91.5285 17.1995C91.647 17.6009 91.7259 17.8246 91.7851 18.0548C92.9299 22.3575 94.0812 26.6537 95.1997 30.963C95.3444 31.5222 95.5418 31.7656 96.147 31.7064C96.7523 31.6472 97.3707 31.6998 97.9892 31.6932C98.7392 31.6932 99.6405 31.9301 100.187 31.5945C100.772 31.2327 100.766 30.2327 101.002 29.509C103.121 22.9891 105.213 16.4561 107.358 9.94284C107.601 9.1994 107.417 9.1073 106.739 9.12704" fill="white"/>
<path d="M19.5338 16.2588C19.1456 13.1469 17.7508 10.7061 14.6521 9.56788C12.2705 8.69286 9.79018 8.56128 7.34276 9.23235C4.50061 10.0021 2.52689 11.7456 1.71766 14.6469C1.6124 15.0219 1.66503 15.1667 2.04662 15.2456C3.27032 15.4956 4.49403 15.7719 5.71116 16.0417C5.98748 16.1009 6.19143 16.1075 6.34275 15.7785C7.24408 13.818 8.92832 13.4101 10.8757 13.6206C13.2047 13.8706 14.1587 15.0022 14.0929 17.3246C14.0797 17.7522 13.9613 17.8575 13.5468 17.8509C12.3231 17.8312 11.0928 17.8246 9.86913 17.8641C7.93488 17.9299 6.06643 18.3049 4.34929 19.2588C1.65845 20.7457 0.40185 23.2787 0.82291 26.3905C1.18476 29.0814 2.94137 31.0617 5.60589 31.7393C7.02697 32.1012 8.45463 32.0551 9.88228 31.7328C11.7442 31.3051 13.2179 30.2722 14.5074 28.713C14.685 29.5946 14.8561 30.3183 14.9745 31.0485C15.0337 31.4367 15.1982 31.5683 15.5929 31.5551C16.7377 31.5288 17.889 31.5156 19.0338 31.5551C19.5667 31.5749 19.6982 31.4038 19.6917 30.8906C19.6654 28.5024 19.7048 26.1142 19.6719 23.726C19.6456 21.2326 19.843 18.7325 19.5338 16.2456V16.2588ZM8.25067 27.1932C7.41513 26.9695 6.71775 26.2063 6.6388 25.3182C6.5467 24.2721 6.88223 23.3773 7.80988 22.7984C8.38226 22.4365 9.03358 22.2918 9.71123 22.2786C10.3231 22.2721 10.9349 22.2786 11.5468 22.2786C12.2376 22.2786 12.9284 22.305 13.6192 22.2721C14.0337 22.2523 14.0863 22.4168 14.0863 22.7786C14.0797 25.4958 10.9086 27.9103 8.25067 27.1998" fill="white"/>
<path d="M127.812 18.325C127.812 17.5026 127.772 16.6802 127.634 15.8644C127.147 12.9499 125.772 10.6538 122.877 9.59456C120.114 8.58796 117.285 8.48928 114.509 9.54851C112.186 10.4367 110.621 12.1012 109.897 14.4894C109.805 14.7986 109.66 15.1407 110.226 15.246C111.456 15.4762 112.673 15.7657 113.897 16.0355C114.147 16.0881 114.351 16.0947 114.483 15.8052C115.39 13.792 117.094 13.3973 119.068 13.6078C121.377 13.8578 122.325 15.0157 122.226 17.3447C122.206 17.7329 122.108 17.8381 121.726 17.8315C120.687 17.8052 119.647 17.8118 118.601 17.8315C116.693 17.8513 114.831 18.1342 113.081 18.9434C109.785 20.4632 108.272 23.5553 109.094 27.0751C109.825 30.187 112.43 32.0423 116.029 31.9831C118.687 31.9371 120.877 30.8976 122.641 28.7133C122.812 29.5357 123.016 30.2002 123.081 30.8844C123.141 31.4963 123.43 31.5884 123.963 31.5686C125.002 31.5292 126.049 31.516 127.081 31.5686C127.68 31.6015 127.825 31.4305 127.825 30.8318C127.799 26.6607 127.805 22.4961 127.812 18.325ZM116.371 27.1738C115.489 26.9962 114.733 26.0554 114.647 25.2067C114.542 24.1672 115.075 23.2527 116.062 22.7922C117.239 22.2329 118.509 22.3711 119.608 22.3514C120.397 22.3514 121.035 22.3711 121.68 22.3448C122.075 22.3251 122.226 22.4106 122.22 22.8514C122.18 26.0422 118.772 27.6607 116.371 27.187" fill="white"/>
<path d="M188.221 19.081C187.313 18.6402 186.353 18.3178 185.405 17.9757C184.458 17.6336 183.451 17.4297 182.596 16.8639C181.826 16.3573 181.484 15.6533 181.642 14.923C181.8 14.1599 182.438 13.5809 183.353 13.4822C184.905 13.3046 186.168 13.923 187.175 15.0546C187.432 15.3441 187.563 15.3704 187.84 15.1138C188.695 14.3112 189.557 13.5151 190.445 12.7585C190.787 12.469 190.701 12.2782 190.491 11.9756C188.392 8.94924 183.78 7.70579 180.497 9.3374C178.102 10.5282 176.787 12.4756 176.741 15.1665C176.695 17.8704 178.122 19.6534 180.497 20.7587C181.359 21.16 182.267 21.4758 183.162 21.8245C184.103 22.1929 185.089 22.4561 185.938 23.0284C187.307 23.9429 187.208 25.818 185.754 26.6074C185.103 26.9627 184.386 27.0351 183.662 26.9693C181.642 26.7851 180.491 25.5022 179.708 23.7982C179.517 23.3837 179.366 23.3113 178.958 23.5482C177.852 24.1864 176.741 24.8245 175.596 25.3772C175.017 25.6601 175.056 25.9232 175.313 26.4035C177.149 29.8115 180.017 31.5549 183.504 31.7194C186.583 31.6733 188.912 30.8378 190.57 28.6009C193.175 25.0745 192.162 21.0021 188.234 19.0876" fill="white"/>
<path d="M147.175 9.08761C144.846 8.58103 142.675 8.85077 140.707 10.2784C139.839 10.91 139.161 11.7192 138.418 12.7982C138.418 11.6403 138.398 10.7061 138.424 9.77184C138.438 9.3113 138.352 9.10735 137.819 9.12051C136.352 9.15998 134.885 9.14683 133.418 9.12051C132.984 9.12051 132.812 9.21262 132.812 9.68631C132.826 16.8312 132.826 23.9695 132.812 31.1143C132.812 31.5683 132.944 31.7064 133.398 31.6867C134.813 31.6275 136.227 31.5749 137.642 31.5814C138.253 31.5814 138.431 31.417 138.431 30.7854C138.431 27.6537 138.293 24.5155 138.53 21.3905C138.674 19.5286 139.056 17.7193 140.102 16.1141C141.536 13.9101 143.905 13.1535 146.273 14.1667C146.629 14.318 146.773 14.364 146.852 13.9166C147.096 12.5614 147.359 11.2061 147.648 9.85737C147.747 9.40341 147.635 9.1863 147.168 9.08104" fill="white"/>
</svg>
